<?xml version="1.0" encoding="utf-8"?>
<!-- Generator: Adobe Illustrator 24.3.0, SVG Export Plug-In . SVG Version: 6.00 Build 0)  -->
<svg version="1.1" id="Layer_1" xmlns="http://www.w3.org/2000/svg" xmlns:xlink="http://www.w3.org/1999/xlink" x="0px" y="0px"
	 viewBox="0 0 77 77" style="enable-background:new 0 0 77 77;" xml:space="preserve">
<style type="text/css">
	.st0{fill:#C60C30;}
	.st1{opacity:0.6;}
	.st2{fill:#FFFFFF;}
</style>
<g>
	<g>
		<g>
			<path class="st0" d="M38.5,0C17.24,0,0,17.24,0,38.5S17.24,77,38.5,77S77,59.76,77,38.5S59.76,0,38.5,0L38.5,0z"/>
		</g>
	</g>
</g>
<g class="st1">
	<path class="st0" d="M21.21,41.6c-0.55,0-1-0.45-1-1V22.86c0-0.55,0.45-1,1-1h17.74c0.55,0,1,0.45,1,1V40.6c0,0.55-0.45,1-1,1
		H21.21z"/>
	<path class="st2" d="M38.95,22.86V40.6H21.21V22.86H38.95 M38.95,20.86H21.21c-1.1,0-2,0.9-2,2V40.6c0,1.1,0.9,2,2,2h17.74
		c1.1,0,2-0.9,2-2V22.86C40.95,21.76,40.05,20.86,38.95,20.86L38.95,20.86z"/>
</g>
<g>
	<rect x="33.14" y="34.78" class="st0" width="10.98" height="10.98"/>
</g>
<g>
	<path class="st0" d="M37.17,57.56c-0.55,0-1-0.45-1-1V38.81c0-0.55,0.45-1,1-1h17.74c0.55,0,1,0.45,1,1v17.74c0,0.55-0.45,1-1,1
		H37.17z"/>
	<path class="st2" d="M54.92,38.81v17.74H37.17V38.81H54.92 M54.92,36.81H37.17c-1.1,0-2,0.9-2,2v17.74c0,1.1,0.9,2,2,2h17.74
		c1.1,0,2-0.9,2-2V38.81C56.92,37.71,56.02,36.81,54.92,36.81L54.92,36.81z"/>
</g>
<g id="Icons_5_">
	<g>
		<path class="st2" d="M44.87,43.12l-3.02,8.6h1.96l0.62-2.04h3.12l0.62,2.04h1.96l-3.04-8.6H44.87z M44.89,48.16
			c0.61-1.97,0.98-3.21,1.11-3.71c0.03,0.14,0.08,0.33,0.16,0.57s0.4,1.29,0.97,3.13H44.89z"/>
		<path class="st2" d="M26.42,27.87c-0.5,0-0.84-0.02-1.16-0.06v1.1c0.32-0.03,0.65-0.05,1.16-0.05h1.17v0.38
			c0,0.17-0.01,0.35-0.04,0.53h1.14c-0.02-0.18-0.03-0.29-0.03-0.55v-0.36h2.11v0.39c0,0.22-0.01,0.36-0.03,0.52h1.14
			c-0.03-0.19-0.04-0.36-0.04-0.54v-0.37h1.23c0.5,0,0.84,0.02,1.16,0.05v-1.1c-0.31,0.04-0.65,0.06-1.16,0.06h-1.23v-0.29
			c0-0.21,0.02-0.41,0.05-0.59h-1.17c0.04,0.2,0.05,0.39,0.05,0.59v0.29h-2.11v-0.29c0-0.21,0.02-0.4,0.05-0.59h-1.17
			c0.04,0.2,0.05,0.38,0.05,0.59v0.29H26.42z"/>
		<path class="st2" d="M25.69,36.14c1.04-0.29,1.57-0.48,2.3-0.85c0.7-0.35,1.24-0.7,1.78-1.16c1.06,0.9,2.3,1.5,4.09,1.98
			c0.13-0.5,0.23-0.7,0.55-1.14c-1.57-0.31-2.86-0.85-3.86-1.63c0.58-0.65,1.05-1.4,1.54-2.42c0.16-0.34,0.18-0.37,0.27-0.54
			l-1.13-0.44c-0.16,0.79-0.78,1.94-1.45,2.69c-0.72-0.79-1.38-1.94-1.56-2.71l-1.11,0.46c0.08,0.13,0.12,0.21,0.27,0.54
			c0.42,0.9,0.93,1.68,1.61,2.45c-0.55,0.44-1.03,0.73-1.74,1.04c-0.69,0.3-1.11,0.43-2.17,0.66
			C25.44,35.49,25.53,35.66,25.69,36.14z"/>
	</g>
</g>
</svg>
