<?xml version="1.0" encoding="utf-8"?>
<!-- Generator: Adobe Illustrator 24.3.0, SVG Export Plug-In . SVG Version: 6.00 Build 0)  -->
<svg version="1.1" id="Layer_1" xmlns="http://www.w3.org/2000/svg" xmlns:xlink="http://www.w3.org/1999/xlink" x="0px" y="0px"
	 viewBox="0 0 77 77" style="enable-background:new 0 0 77 77;" xml:space="preserve">
<style type="text/css">
	.st0{fill:#C60C30;}
	.st1{opacity:0.6;fill:#FFFFFF;}
	.st2{fill:#FFFFFF;}
</style>
<g>
	<g>
		<g>
			<g>
				<path class="st0" d="M38.5,0C17.24,0,0,17.24,0,38.5S17.24,77,38.5,77S77,59.76,77,38.5S59.76,0,38.5,0L38.5,0z"/>
			</g>
		</g>
	</g>
	<g>
		<polygon class="st1" points="37,29 37,29 37,27 37,27 21,25 21,46.43 21,48 21,54 37.06,52 37,52 37,50 37,50 23,51.87 23,48 
			23,47.57 34,40.5 37,42.5 37,40 34,38 23,45.26 23,27.14 		"/>
		<g>
			<path class="st2" d="M54,27H39v-6h-2v20v1.52v0.28v1.81V58h2v-6h11.69H52h2h2v-2V29v-2H54z M39,50v-4.94v-0.73v-0.42L47.8,50H39z
				 M54,50h-2h-0.69l-6.83-4.73l3.47-2.08L54,47.49V50z M54,45.03l-5.95-4.23l-5.36,3.22L39,41.48V41V29h15V45.03z"/>
			<path class="st2" d="M48.5,38c1.93,0,3.5-1.57,3.5-3.5S50.43,31,48.5,31S45,32.57,45,34.5S46.57,38,48.5,38z M48.5,33
				c0.83,0,1.5,0.67,1.5,1.5S49.33,36,48.5,36S47,35.33,47,34.5S47.67,33,48.5,33z"/>
		</g>
	</g>
</g>
</svg>
