<?xml version="1.0" encoding="utf-8"?>
<!-- Generator: Adobe Illustrator 24.3.0, SVG Export Plug-In . SVG Version: 6.00 Build 0)  -->
<svg version="1.1" id="Layer_1" xmlns="http://www.w3.org/2000/svg" xmlns:xlink="http://www.w3.org/1999/xlink" x="0px" y="0px"
	 viewBox="0 0 77 77" style="enable-background:new 0 0 77 77;" xml:space="preserve">
<style type="text/css">
	.st0{fill:#C60C30;}
	.st1{fill:#FFFFFF;}
</style>
<g>
	<circle class="st0" cx="38.5" cy="38.5" r="38.5"/>
	<g>
		<g>
			<path class="st1" d="M50,35v19H27V35H50 M52,33H25v23h27V33L52,33z"/>
		</g>
		<path class="st1" d="M31,32.5v-5c0-4.14,3.36-7.5,7.5-7.5s7.5,3.36,7.5,7.5v5c0,0.17-0.01,0.33-0.03,0.5h2
			c0.01-0.17,0.03-0.33,0.03-0.5v-5c0-5.23-4.28-9.5-9.5-9.5S29,22.27,29,27.5v5c0,0.17,0.02,0.33,0.03,0.5h2
			C31.01,32.83,31,32.67,31,32.5z"/>
		<g>
			<path class="st1" d="M38.5,41c0.83,0,1.5,0.67,1.5,1.5S39.33,44,38.5,44S37,43.33,37,42.5S37.67,41,38.5,41 M38.5,39
				c-1.93,0-3.5,1.57-3.5,3.5s1.57,3.5,3.5,3.5s3.5-1.57,3.5-3.5S40.43,39,38.5,39L38.5,39z"/>
		</g>
		<g>
			<polygon class="st1" points="40,44 37,44 37,49 40,49 40,44 			"/>
		</g>
	</g>
</g>
</svg>
