<?xml version="1.0" encoding="utf-8"?>
<!-- Generator: Adobe Illustrator 25.0.1, SVG Export Plug-In . SVG Version: 6.00 Build 0)  -->
<svg version="1.1" id="Слой_1" xmlns="http://www.w3.org/2000/svg" xmlns:xlink="http://www.w3.org/1999/xlink" x="0px" y="0px"
	 viewBox="0 0 33.8 34.7" style="enable-background:new 0 0 33.8 34.7;" xml:space="preserve">
<style type="text/css">
	.st0{fill:#5F6973;}
	.st1{fill:#FFFFFF;}
</style>
<circle class="st0" cx="17.1" cy="17.5" r="15.2"/>
<path class="st1" d="M26,22.2c2-4.5-1.8-6.7-2.5-7.4c0.5-7.6-6.3-7.6-6.3-7.6s-6.8,0-6.4,7.6c-0.7,0.7-4.6,2.9-2.6,7.4
	c0,0,1.7-0.3,2.4-1.4c0,0-0.3,1.5,0.4,2.7c0,0-2.9,2.4-0.9,2.8c2.4,0.5,5.6,0,5.6,0l0.1-0.9l1.2,0.1l1.2-0.1l0.1,0.9
	c0,0,3.3,0.5,5.6,0c2-0.4-0.9-2.8-0.9-2.8c0.7-1.1,0.4-2.7,0.4-2.7C24.3,21.9,26,22.2,26,22.2z"/>
</svg>
