<svg xmlns="http://www.w3.org/2000/svg" width="77" height="77" viewBox="0 0 77 77"><defs><style>.cls-1{fill:#c60c30;fill-rule:evenodd;}</style></defs><title>RS_77x77</title><g id="Слой_2" data-name="Слой 2"><g id="Layer_1" data-name="Layer 1"><path class="cls-1" d="M9.62,77H67.38A9.61,9.61,0,0,0,77,67.39V53.87a48.75,48.75,0,0,0-8.53-14.58,24.73,24.73,0,0,0-4-3.57A32.06,32.06,0,0,0,60,32.9q-.82-.42-1.67-.77c-.56-.23-1.13-.44-1.7-.63s-1.14-.35-1.72-.49-1.15-.26-1.73-.36a10.75,10.75,0,0,1,1,1,10.17,10.17,0,0,1,.78,1.12,9.69,9.69,0,0,1,.62,1.2A10.1,10.1,0,0,1,56,35.27l.06.27.06.27c0,.09,0,.17,0,.27s0,.18,0,.27A14.48,14.48,0,0,1,56.47,39a15.83,15.83,0,0,1-.22,2.81,18.17,18.17,0,0,1-.74,2.92,21.37,21.37,0,0,1-1.28,3,26.87,26.87,0,0,1-3.13,4.71,33.67,33.67,0,0,1-4.32,4.36,39.73,39.73,0,0,1-5.34,3.78,41.94,41.94,0,0,1-6.12,3A51.47,51.47,0,0,1,18,67.09,35.28,35.28,0,0,1,3.68,64.63,25,25,0,0,1,0,62.74v4.65A9.61,9.61,0,0,0,9.62,77Z"/><path class="cls-1" d="M39,45.59l.49,0,.5,0,.5-.07a10.58,10.58,0,0,0,1.61-.38,10.85,10.85,0,0,0,1.51-.62A10.06,10.06,0,0,0,45,43.62a9.57,9.57,0,0,0,1.19-1,8.17,8.17,0,0,0,.93-1.15,7.07,7.07,0,0,0,.64-1.19A6.07,6.07,0,0,0,48.1,39a5.18,5.18,0,0,0,.08-1.18s0-.07,0-.1l0-.1,0-.1,0-.11c0-.15-.07-.3-.11-.45s-.08-.3-.13-.44-.1-.29-.15-.44-.12-.28-.18-.42a4.16,4.16,0,0,0-.38-.56,4.73,4.73,0,0,0-.46-.52,5.39,5.39,0,0,0-.56-.47,6.67,6.67,0,0,0-.63-.41,6.58,6.58,0,0,0-1.23-.54,7.23,7.23,0,0,0-1.35-.31,8.79,8.79,0,0,0-1.43-.09,10,10,0,0,0-1.49.14,10.28,10.28,0,0,0-1.45.35,9.62,9.62,0,0,0-1.37.55,9.73,9.73,0,0,0-1.27.73,9.88,9.88,0,0,0-1.14.9l0,0,0,0,0,0,0,0a8.49,8.49,0,0,0-1,1.06A7.46,7.46,0,0,0,33,37.74a6.68,6.68,0,0,0-.44,1.2,5.37,5.37,0,0,0-.17,1.25v.13s0,.09,0,.14,0,.09,0,.13,0,.09,0,.13a4.8,4.8,0,0,0,.22,1.06,4.58,4.58,0,0,0,.45,1,5,5,0,0,0,.68.87,6,6,0,0,0,.9.75c.21.14.43.27.66.38a7.12,7.12,0,0,0,.72.31c.25.09.51.17.77.24s.54.12.81.16l.21,0,.21,0,.21,0,.21,0h0Z"/><path class="cls-1" d="M67.38,0H9.62A9.61,9.61,0,0,0,0,9.61V50.5a13.46,13.46,0,0,0,1.31,1.89,17.2,17.2,0,0,0,7.5,5A28.89,28.89,0,0,0,19.92,59a41.79,41.79,0,0,0,13.16-2.83c.59-.22,1.17-.46,1.74-.72s1.13-.53,1.67-.82,1.08-.59,1.6-.91,1-.65,1.51-1c-.42,0-.83.06-1.24.07s-.81,0-1.21,0-.79,0-1.19-.09-.77-.1-1.15-.16a20.53,20.53,0,0,1-6.4-2.08,16.38,16.38,0,0,1-4.65-3.63,14.88,14.88,0,0,1-2.8-4.66,15.54,15.54,0,0,1-1-5.27A17.22,17.22,0,0,1,20.08,35a17.42,17.42,0,0,1,.29-1.85c.13-.61.29-1.23.48-1.85s.42-1.23.68-1.86a31.53,31.53,0,0,1,2.82-5.23,36.13,36.13,0,0,1,3.72-4.67,40.3,40.3,0,0,1,4.46-4.08,43.89,43.89,0,0,1,5.11-3.44,45.67,45.67,0,0,1,5.11-2.53,46.46,46.46,0,0,1,10.9-3.1,46.08,46.08,0,0,1,5.72-.54,53.75,53.75,0,0,1,7,.23,50.36,50.36,0,0,1,6.9,1.16c.55.14,1.1.28,1.65.43l2,.71A9.62,9.62,0,0,0,67.38,0Z"/><path class="cls-1" d="M75.56,13.47a37.78,37.78,0,0,0-5.48-1.92,40.55,40.55,0,0,0-5.72-1.08,43,43,0,0,0-5.89-.27,35.25,35.25,0,0,0-4.57.4,35.87,35.87,0,0,0-4.46,1,36.47,36.47,0,0,0-4.3,1.53A35.33,35.33,0,0,0,41,15.15,33.29,33.29,0,0,0,36.84,18a31.36,31.36,0,0,0-3.61,3.41,28,28,0,0,0-2.94,3.9,24.42,24.42,0,0,0-2.15,4.32c-.17.45-.32.9-.44,1.35s-.22.9-.3,1.34-.13.89-.16,1.33a12,12,0,0,0,0,1.3c.17-.23.34-.46.52-.68s.37-.45.56-.67.4-.44.61-.64.42-.42.65-.63a27.67,27.67,0,0,1,7.55-4.88A32.73,32.73,0,0,1,45.91,25a34.83,34.83,0,0,1,9.42,0,32.71,32.71,0,0,1,9.47,2.8,39.65,39.65,0,0,1,5.67,3.27,33.63,33.63,0,0,1,5.08,4.21c.52.53,1,1,1.46,1.54V14.16Q76.29,13.8,75.56,13.47Z"/></g></g></svg>