<?xml version="1.0" encoding="utf-8"?>
<!-- Generator: Adobe Illustrator 21.0.2, SVG Export Plug-In . SVG Version: 6.00 Build 0)  -->
<svg version="1.1" id="Layer_1" xmlns="http://www.w3.org/2000/svg" xmlns:xlink="http://www.w3.org/1999/xlink" x="0px" y="0px"
	 viewBox="0 0 22 14" style="enable-background:new 0 0 22 14;" xml:space="preserve">
<style type="text/css">
	.st0{fill:#FBF9F8;}
	.st1{fill:#F90805;}
</style>
<g transform="scale(0.916666667, 0.875)">
<polygon class="st0" points="6,0 18,0 18,16 6,16 6,0 "/>
<polygon class="st1" points="0,0 6,0 6,16 0,16 0,0 "/>
<polygon class="st1" points="18,0 24,0 24,16 18,16 18,0 "/>
<path class="st1" d="M7.3,8.1L9.4,10c0.4,0.3,0.1,0.7-0.1,1l2.4-0.3l-0.1,2.4h0.5l-0.1-2.4l2.4,0.3c-0.2-0.4-0.4-0.8,0-1.1l2.1-1.8
	c-0.2-0.1-0.4-0.1-0.5-0.3c0-0.6,0.1-1.1,0.4-1.6c-0.4,0.2-0.9,0.3-1.3,0.3c-0.2,0-0.3-0.5-0.4-0.7l-1.1,1.1
	c-0.3,0.3-0.4,0.2-0.3-0.2l0.5-2.5l-0.7,0.4c-0.2,0.1-0.3,0.1-0.4-0.1L12,2.9l-0.8,1.6c-0.1,0.2-0.1,0.2-0.4,0.1l-0.7-0.4l0.4,2.5
	c0.1,0.4,0,0.5-0.3,0.2l-1-1.1C9.2,6,9,6.3,8.8,6.5c-0.5,0-0.9-0.1-1.3-0.3c0.2,0.5,0.4,1,0.4,1.5C7.9,8,7.6,8,7.3,8.1L7.3,8.1z"/>
</g>
</svg>
