<?xml version="1.0" encoding="utf-8"?>
<!-- Generator: Adobe Illustrator 21.0.2, SVG Export Plug-In . SVG Version: 6.00 Build 0)  -->
<svg version="1.1" id="Layer_1" xmlns="http://www.w3.org/2000/svg" xmlns:xlink="http://www.w3.org/1999/xlink" x="0px" y="0px"
	 viewBox="0 0 22 14" style="enable-background:new 0 0 22 14;" xml:space="preserve">
<style type="text/css">
	.st0{fill:#828C96;}
	.st1{fill:#E6EBF0;}
</style>
<g transform="scale(0.916666667, 0.875)">
<rect class="st0" width="24" height="16"/>
<path class="st1" d="M4.1,7.1H5c0,0,0.4-1.3,0.6-1.9C6.1,4.6,6.7,4.1,7.5,4c0.5,0,2.2,0.4,3,0.5s1.1,0.2,1.3-0.2s1.1-1.5,2-1.2
	s2.4,1.7,2,1.9s-0.4,0.7-0.2,0.8S17,5.8,17,6.2s2.7,0.9,2.9,1.5S18.5,9,18.1,9.5c-0.3,0.5-0.6,0.9-1.1,1.2c-0.5,0.2-1.3-0.5-1.4-0.8
	s-1.3-0.2-1.5,0.1s-0.6,2.7-2.1,2.8c-0.9,0.2-1.8-0.5-2-1.4c0-0.3-0.6-1.1-0.8-1.3S7,10.2,7,9.9S6.7,9.2,6.7,8.9S7,7.9,6.5,8
	C6,8.1,4,8.4,4.1,7.1z"/>
</g>
</svg>
