<?xml version="1.0" encoding="utf-8"?>
<!-- Generator: Adobe Illustrator 21.0.2, SVG Export Plug-In . SVG Version: 6.00 Build 0)  -->
<svg version="1.1" id="Layer_1" xmlns="http://www.w3.org/2000/svg" xmlns:xlink="http://www.w3.org/1999/xlink" x="0px" y="0px"
	 viewBox="0 0 22 14" style="enable-background:new 0 0 22 14;" xml:space="preserve">
<style type="text/css">
	.st0{fill:#F4F4F7;}
	.st1{fill:#1672F0;}
</style>
<g transform="scale(0.916666667, 0.875)">
<polygon class="st0" points="0,0 24,0 24,16 0,16 0,0 "/>
<path class="st1" d="M0,2h24v2H0V2z M0,12h24v2H0V12z M14.7,6.6L13.9,8l0.8,1.4l0.1,0.3h-1.9L12.1,11L12,11.3L11.9,11l-0.8-1.4H9.2
	l0.1-0.3L10.1,8L9.3,6.6L9.2,6.4h1.9L11.9,5L12,4.7L12.1,5l0.8,1.4h1.9L14.7,6.6L14.7,6.6z M10.9,6.7H9.8l0.5,0.9
	C10.3,7.7,10.9,6.7,10.9,6.7z M13.7,7.7l0.5-0.9h-1.1C13.1,6.7,13.7,7.7,13.7,7.7z M12,10.6l0.5-0.9h-1.1L12,10.6z M13.1,9.3h1.1
	l-0.5-0.9L13.1,9.3L13.1,9.3z M10.3,8.4L9.8,9.3h1.1L10.3,8.4L10.3,8.4z M11.3,6.7L10.5,8l0.7,1.3h1.5L13.5,8l-0.7-1.3H11.3z
	 M12,5.4l-0.5,0.9h1.1L12,5.4z"/>
</g>
</svg>
