<?xml version="1.0" encoding="utf-8"?>
<!-- Generator: Adobe Illustrator 21.0.2, SVG Export Plug-In . SVG Version: 6.00 Build 0)  -->
<svg version="1.1" id="Layer_1" xmlns="http://www.w3.org/2000/svg" xmlns:xlink="http://www.w3.org/1999/xlink" x="0px" y="0px"
	 viewBox="0 0 22 14" style="enable-background:new 0 0 22 14;" xml:space="preserve">
<style type="text/css">
	.st0{fill:#F90805;}
	.st1{fill:#FFFFFF;}
</style>
<g transform="scale(0.916666667, 0.875)">
<polygon class="st0" points="0,0 24,0 24,16 0,16 0,0 "/>
<path class="st1" d="M7.9,3.8c1.4,0,2.8,0.8,3.5,2c-1.2-1.4-3.4-1.5-4.7-0.3s-1.5,3.4-0.3,4.7s3.4,1.5,4.7,0.3
	c0.1-0.1,0.2-0.2,0.3-0.3c-1.3,1.9-3.9,2.5-5.8,1.2S3.2,7.6,4.5,5.7C5.2,4.5,6.5,3.8,7.9,3.8z M15.3,9.2l-1.4-0.5L12.9,10V8.5
	L11.5,8l1.4-0.5V6l0.9,1.2l1.4-0.5L14.4,8L15.3,9.2L15.3,9.2z"/>
</g>
</svg>
