<?xml version="1.0" encoding="utf-8"?>
<!-- Generator: Adobe Illustrator 21.0.2, SVG Export Plug-In . SVG Version: 6.00 Build 0)  -->
<svg version="1.1" id="Layer_1" xmlns="http://www.w3.org/2000/svg" xmlns:xlink="http://www.w3.org/1999/xlink" x="0px" y="0px"
	 viewBox="0 0 22 14" style="enable-background:new 0 0 22 14;" xml:space="preserve">
<style type="text/css">
	.st0{fill:#0437A0;}
	.st1{fill:#FFDA50;}
</style>
<g transform="scale(0.916666667, 0.875)">
<polygon class="st0" points="24,0 24,16 0,16 0,0 24,0 "/>
<path class="st1" d="M9.1,2.1l0.2,0.7h0.7L9.5,3.2l0.2,0.7L9.1,3.5L8.6,3.9l0.2-0.7L8.2,2.8h0.7L9.1,2.1L9.1,2.1L9.1,2.1z
	 M14.8,12.1l0.2,0.7h0.7l-0.6,0.4l0.2,0.7l-0.6-0.4l-0.6,0.4l0.2-0.7l-0.6-0.4h0.7L14.8,12.1L14.8,12.1L14.8,12.1z M9.1,12.1
	l0.2,0.7h0.7l-0.6,0.4l0.2,0.7l-0.6-0.4l-0.6,0.4l0.2-0.7l-0.6-0.4h0.7L9.1,12.1L9.1,12.1L9.1,12.1z M14.8,2.1l0.2,0.7h0.7l-0.6,0.4
	l0.2,0.7l-0.6-0.4l-0.6,0.4l0.2-0.7l-0.6-0.4h0.7L14.8,2.1L14.8,2.1L14.8,2.1z M16.9,10l0.2,0.7h0.7l-0.6,0.4l0.2,0.7l-0.6-0.4
	l-0.6,0.4l0.2-0.7L16,10.7h0.7L16.9,10L16.9,10L16.9,10z M16.9,4.2l0.2,0.7h0.7l-0.6,0.4L17.5,6l-0.6-0.4L16.4,6l0.2-0.7L16,4.9h0.7
	L16.9,4.2L16.9,4.2L16.9,4.2z M7.1,10l0.2,0.7H8l-0.6,0.4l0.2,0.7l-0.6-0.4l-0.6,0.4l0.2-0.7l-0.6-0.4h0.7L7.1,10L7.1,10z M17.7,7.1
	L18,7.8h0.7l-0.6,0.4l0.2,0.7l-0.6-0.4l-0.6,0.4l0.2-0.7l-0.6-0.4h0.7L17.7,7.1L17.7,7.1L17.7,7.1z M6.3,7.1l0.2,0.7h0.7L6.7,8.2
	l0.2,0.7L6.3,8.5L5.7,8.9l0.2-0.7L5.4,7.8l0.6,0L6.3,7.1L6.3,7.1z M7.1,4.2l0.2,0.7H8L7.4,5.3L7.6,6L7.1,5.6L6.5,6l0.2-0.7L6.1,4.9
	h0.7L7.1,4.2L7.1,4.2z M12,12.9l0.2,0.7h0.7l-0.6,0.4l0.2,0.7L12,14.2l-0.6,0.4l0.2-0.7L11,13.5h0.7L12,12.9L12,12.9z M12,1.4
	L12.2,2h0.7l-0.6,0.4l0.2,0.7L12,2.8l-0.6,0.4l0.2-0.7L11,2h0.7L12,1.4L12,1.4z"/>
</g>
</svg>
