<?xml version="1.0" encoding="utf-8"?>
<!-- Generator: Adobe Illustrator 21.0.2, SVG Export Plug-In . SVG Version: 6.00 Build 0)  -->
<svg version="1.1" id="Layer_1" xmlns="http://www.w3.org/2000/svg" xmlns:xlink="http://www.w3.org/1999/xlink" x="0px" y="0px"
	 viewBox="0 0 22 14" style="enable-background:new 0 0 22 14;" xml:space="preserve">
<style type="text/css">
	.st0{fill:#7A60D8;}
	.st1{fill:#E6EBF0;}
</style>
<g transform="scale(0.916666667, 0.875)">
<rect class="st0" width="24" height="16"/>
<path class="st1" d="M5,7.6c0,0,0.5-1.2,1.4-1s1.4,0.3,1.3-0.1S9.4,4,10.1,3.8s1.5,0.3,1.6,0.1s0.1-0.5,0.5-0.5
	c1,0.2,1.9,0.4,2.9,0.4C16.1,3.7,15.9,3,16.5,3s0.9,1,1.6,1s1.1-0.2,0.9,0.4s-0.4,0.4-0.7,1.1s0.4,1.9-0.4,1.7s-1.4-1.4-1.6-0.9
	S16.3,8,15.9,9s-2.1,0.9-2.2,1.7s0.6,1.2,0.1,1.4s-1.2-0.1-1.3,0.3s-0.2-1.1-0.6-1.5s-0.2-0.8-1-0.9c-0.9,0-1.6,0.5-2,1.3
	c-0.2,0.7,0.5,1.4-0.3,1.4s-1.1-2-1.2-2.4S7.1,10,6.4,9.4S4.7,9.3,5,7.6z"/>
</g>
</svg>
