<?xml version="1.0" encoding="utf-8"?>
<!-- Generator: Adobe Illustrator 21.0.2, SVG Export Plug-In . SVG Version: 6.00 Build 0)  -->
<svg version="1.1" id="Layer_1" xmlns="http://www.w3.org/2000/svg" xmlns:xlink="http://www.w3.org/1999/xlink" x="0px" y="0px"
	 viewBox="0 0 22 14" style="enable-background:new 0 0 22 14;" xml:space="preserve">
<style type="text/css">
	.st0{fill:#0D8E63;}
	.st1{fill:#E6EBF0;}
</style>
<g transform="scale(0.916666667, 0.875)">
<rect class="st0" width="24" height="16"/>
<path class="st1" d="M5,4.2c0.4,0,0.9-0.1,1.3-0.2C6.7,3.9,6.7,2.9,7.4,3s3.4,1.8,3.8,1.6s1.2-0.1,1.3,0.1s0.8,2.6,1.7,2.5
	c0.8-0.1,1.6-0.4,2.3-0.8c0.5-0.3,0.5,0.6,0.8,0.8S19,7.6,19,8c0,0.4-4.5,4.1-5.5,4.1c-0.6-0.1-1.2,0-1.7,0.4
	c-0.2,0.2-0.9,0.9-1.5,0.5S9.5,11.9,9,10.4C8.7,9.2,8,8,7.2,7C6.3,6.1,4.5,4.7,5,4.2z"/>
</g>
</svg>
