<?xml version="1.0" encoding="utf-8"?>
<!-- Generator: Adobe Illustrator 21.0.2, SVG Export Plug-In . SVG Version: 6.00 Build 0)  -->
<svg version="1.1" id="Layer_1" xmlns="http://www.w3.org/2000/svg" xmlns:xlink="http://www.w3.org/1999/xlink" x="0px" y="0px"
	 viewBox="0 0 22 14" style="enable-background:new 0 0 22 14;" xml:space="preserve">
<style type="text/css">
	.st0{fill:#3C7DD1;}
	.st1{fill:#E6EBF0;}
</style>
<g transform="scale(0.916666667, 0.875)">
<rect class="st0" width="24" height="16"/>
<path class="st1" d="M9,3.8C9,3.7,9.8,2,10.5,2s2.7,0.4,2.8,0.9s1.1,0.9,1.2,1.2s1.6,0.4,1.5,1s0.2,2.3-0.9,2.9
	c-0.9,0.6-1.7,1.3-2.3,2.2c-0.6,0.7-1,1.4-1.4,2.2c-0.2,0.6,0.1,1.3-0.5,1.4s-0.9-2.2-0.7-3c0.1-1.2,0.3-2.4,0.5-3.7
	c0.3-0.6-0.5-0.5-0.6-1S8.5,5.3,9,3.8z"/>
</g>
</svg>
