<?xml version="1.0" encoding="utf-8"?>
<!-- Generator: Adobe Illustrator 21.0.2, SVG Export Plug-In . SVG Version: 6.00 Build 0)  -->
<svg version="1.1" id="Layer_1" xmlns="http://www.w3.org/2000/svg" xmlns:xlink="http://www.w3.org/1999/xlink" x="0px" y="0px"
	 viewBox="0 0 22 14" style="enable-background:new 0 0 22 14;" xml:space="preserve">
<style type="text/css">
	.st0{fill:#F5F3F2;}
	.st1{fill:#0463C8;}
	.st2{fill:#F90805;}
	.st3{fill:#F8F8F8;}
</style>
<title>flag-slovakia</title>
<g transform="scale(0.916666667, 0.875)">
<polygon class="st0" points="0,0 24,0 24,16 0,16 0,0 "/>
<rect y="5" class="st1" width="24" height="5"/>
<path class="st2" d="M0,10h5.7c0.6,0.7,1.3,1.3,2.1,1.7l0.1,0.1l0.1-0.1c0.8-0.4,1.5-1,2.1-1.7H24v6H0V10z"/>
<path class="st2" d="M4.9,7.8c0-2.3,0.1-3.4,0.1-3.4h5.8c0,0,0.1,1.1,0.1,3.4c0,0.7-0.2,1.4-0.6,2.1L10.4,10l0,0l0,0
	C10.3,9.8,9.1,10,7.9,10C6.8,10,5.6,9.8,5.6,10C5.1,9.3,4.9,8.6,4.9,7.8L4.9,7.8z"/>
<path class="st3" d="M8.2,7.2c0.5,0,1.1,0,1.6-0.2c0,0.3,0,0.6,0,0.9c-0.5-0.1-1-0.2-1.6-0.2v1.2c-0.2-0.1-0.4-0.1-0.5,0V7.7
	c-0.5,0-1.1,0-1.6,0.2c0-0.3,0-0.6,0-0.9c0.5,0.1,1,0.2,1.6,0.2V6.4c-0.4,0-0.8,0.1-1.2,0.2c0-0.3,0-0.6,0-0.9
	c0.4,0.1,0.8,0.2,1.2,0.2c0-0.4-0.1-0.8-0.2-1.2c0.3,0,0.6,0,0.9,0C8.3,5.1,8.2,5.4,8.2,5.8c0.4,0,0.8-0.1,1.2-0.2
	c0,0.3,0,0.6,0,0.9C9,6.4,8.6,6.4,8.2,6.4L8.2,7.2L8.2,7.2z"/>
<path class="st1" d="M5.5,10C6,9.3,6.4,9.3,7,9.9c0.7-1.1,1.3-1.1,2,0c0.5-0.6,1-0.6,1.4,0.1C9.8,10.9,9,11.6,8,12
	C7,11.6,5.5,10,5.5,10z"/>
</g>
</svg>
