<?xml version="1.0" encoding="utf-8"?>
<!-- Generator: Adobe Illustrator 21.0.2, SVG Export Plug-In . SVG Version: 6.00 Build 0)  -->
<svg version="1.1" id="Layer_1" xmlns="http://www.w3.org/2000/svg" xmlns:xlink="http://www.w3.org/1999/xlink" x="0px" y="0px"
	 viewBox="0 0 22 14" style="enable-background:new 0 0 22 14;" xml:space="preserve">
<style type="text/css">
	.st0{fill:#F4F4F7;}
	.st1{fill:#231F20;}
	.st2{fill:#F90805;}
	.st3{fill:#014EAA;}
</style>
<g transform="scale(0.916666667, 0.875)">
<polygon class="st0" points="0,0 24,0 24,16 0,16 0,0 "/>
<path class="st1" d="M16.4,2.6l1,1.5l-0.5,0.4l-1-1.5L16.4,2.6L16.4,2.6z M16.7,13.6l1-1.5l0.5,0.4l-1,1.5L16.7,13.6L16.7,13.6z
	 M17.9,11.8l1-1.5l0.5,0.4l-1,1.5L17.9,11.8L17.9,11.8z M17.6,14.1l1-1.5l0.5,0.4l-1,1.5L17.6,14.1L17.6,14.1z M18.8,12.3l1-1.5
	l0.5,0.4l-1,1.5L18.8,12.3L18.8,12.3z M5.3,6l2.2-3.4L8.1,3L5.9,6.3L5.3,6L5.3,6z M4.5,5.4l2.2-3.4l0.6,0.4L5.1,5.8L4.5,5.4L4.5,5.4
	L4.5,5.4z M3.7,4.9l2.2-3.4l0.6,0.4L4.2,5.2L3.7,4.9L3.7,4.9L3.7,4.9z M15.9,13l1-1.5l0.5,0.4l-1,1.5L15.9,13L15.9,13z M17.6,4.4
	l1,1.5l-0.5,0.4l-1-1.5L17.6,4.4L17.6,4.4z M17.3,2.1l2.2,3.3l-0.5,0.4l-2.2-3.3L17.3,2.1L17.3,2.1L17.3,2.1z M18.1,1.5l1,1.5
	l-0.5,0.4l-1-1.5L18.1,1.5L18.1,1.5z M19.3,3.3l1,1.5l-0.5,0.4l-1-1.5L19.3,3.3L19.3,3.3z M5.9,9.7L8.1,13l-0.6,0.4L5.3,10L5.9,9.7
	L5.9,9.7L5.9,9.7z M5.1,10.2l1,1.5l-0.6,0.4l-1-1.5L5.1,10.2L5.1,10.2z M6.3,12l1,1.5l-0.6,0.4l-1-1.5L6.3,12L6.3,12z M4.3,10.8
	l2.2,3.4l-0.6,0.4l-2.2-3.3L4.3,10.8L4.3,10.8z M17.1,11.2l1-1.5l0.5,0.4l-1,1.5L17.1,11.2L17.1,11.2z"/>
<path class="st2" d="M8.6,5.8c1.1-1.9,3.6-2.5,5.5-1.3s2.5,3.6,1.3,5.5c0,0.1-0.1,0.1-0.1,0.2c0.5-1,0.2-2.2-0.8-2.7
	C13.7,7,12.6,7.2,12,8c-0.6,0.9-1.8,1.2-2.8,0.6C8.3,8,8,6.7,8.6,5.8z"/>
<path class="st3" d="M8.7,5.8c-1.2,1.8-0.7,4.3,1.1,5.5s4.3,0.7,5.6-1.1c0.6-0.9,0.4-2.2-0.6-2.8C13.9,6.8,12.6,7.1,12,8
	s-1.9,1.2-2.8,0.6C8.3,7.9,8.1,6.7,8.7,5.8z"/>
</g>
</svg>
