<?xml version="1.0" encoding="utf-8"?>
<!-- Generator: Adobe Illustrator 21.0.2, SVG Export Plug-In . SVG Version: 6.00 Build 0)  -->
<svg version="1.1" id="Layer_1" xmlns="http://www.w3.org/2000/svg" xmlns:xlink="http://www.w3.org/1999/xlink" x="0px" y="0px"
	 viewBox="0 0 22 14" style="enable-background:new 0 0 22 14;" xml:space="preserve">
<style type="text/css">
	.st0{fill:#F90805;}
	.st1{fill:#384775;}
	.st2{fill:#FFFFFF;}
</style>
<g transform="scale(0.916666667, 0.875)">
	<polygon class="st0" points="14,0 24,0 24,1 14,1 	"/>
	<polygon class="st0" points="14,3 24,3 24,5 14,5 	"/>
	<polygon class="st0" points="14,7 24,7 24,9 14,9 	"/>
	<polygon class="st0" points="0,11 24,11 24,13 0,13 	"/>
	<polygon class="st0" points="0,15 24,15 24,16 0,16 	"/>
	<rect class="st1" width="14" height="9"/>
	<g>
		<rect x="10" y="1" class="st2" width="1" height="1"/>
		<rect x="11" y="3" class="st2" width="1" height="1"/>
		<rect x="9" y="3" class="st2" width="1" height="1"/>
		<rect x="8" y="1" class="st2" width="1" height="1"/>
		<rect x="7" y="3" class="st2" width="1" height="1"/>
		<rect x="8" y="5" class="st2" width="1" height="1"/>
		<rect x="10" y="5" class="st2" width="1" height="1"/>
		<rect x="12" y="5" class="st2" width="1" height="1"/>
		<rect x="6" y="5" class="st2" width="1" height="1"/>
		<rect x="5" y="7" class="st2" width="1" height="1"/>
		<rect x="7" y="7" class="st2" width="1" height="1"/>
		<rect x="9" y="7" class="st2" width="1" height="1"/>
		<rect x="11" y="7" class="st2" width="1" height="1"/>
		<rect x="12" y="1" class="st2" width="1" height="1"/>
		<rect x="4" y="1" class="st2" width="1" height="1"/>
		<rect x="5" y="3" class="st2" width="1" height="1"/>
		<rect x="3" y="3" class="st2" width="1" height="1"/>
		<rect x="2" y="1" class="st2" width="1" height="1"/>
		<rect x="1" y="3" class="st2" width="1" height="1"/>
		<rect x="2" y="5" class="st2" width="1" height="1"/>
		<rect x="4" y="5" class="st2" width="1" height="1"/>
		<rect x="6" y="5" class="st2" width="1" height="1"/>
		<rect x="1" y="7" class="st2" width="1" height="1"/>
		<rect x="3" y="7" class="st2" width="1" height="1"/>
		<rect x="5" y="7" class="st2" width="1" height="1"/>
		<rect x="6" y="1" class="st2" width="1" height="1"/>
	</g>
</g>
</svg>
