<?xml version="1.0" encoding="utf-8"?>
<!-- Generator: Adobe Illustrator 21.0.2, SVG Export Plug-In . SVG Version: 6.00 Build 0)  -->
<svg version="1.1" id="Layer_1" xmlns="http://www.w3.org/2000/svg" xmlns:xlink="http://www.w3.org/1999/xlink" x="0px" y="0px"
	 viewBox="0 0 22 14" style="enable-background:new 0 0 22 14;" xml:space="preserve">
<style type="text/css">
	.st0{fill:#A0A0A0;}
	.st1{fill:#E6EBF0;}
</style>
<title>flag-global</title>
<g transform="scale(0.916666667, 0.875)">
<rect class="st0" width="24" height="16"/>
<path class="st1" d="M4.4,9.1c0,0,0.4,1,1,1.2S5.8,11,5.1,11S3.6,9.1,4.4,9.1z"/>
<path class="st1" d="M4.9,6.2c0,0-1.6-0.5-0.9-1.1c0.6-0.5,1.3-0.8,2.1-0.9c0.4-0.1,0.8-1,1.1-1.1s3.2-0.4,3.5-0.1s0.7,0.8,0,1.3
	S9.2,5,9,5.6S9.7,6.9,8.9,7s-1,0.1-1,0.6S8.7,8.1,9,8.3S8.6,9,8.9,9.2s1.4,0.3,1.1,0.8s-1.2,1.4-1.1,2s-0.3,1.2-0.7,1
	s-0.1-2.1-0.4-2.6s-1-0.6-1.2-1S5.8,8.1,6.2,7.9S6.6,7.4,6,7S4.9,6.2,4.9,6.2z"/>
<path class="st1" d="M18.1,12c0-0.5,0.4-0.9,0.9-0.9c0.9-0.2,0.8-0.8,0.9-1.3s-0.5-0.4-1.3-0.6S16.6,9,16.9,8.4s0.5-1.2,1.2-1.4
	s1.5-1.2,1.4-1.5s0-1.3-0.6-1.4S17.3,4.3,16.6,4s0.2-0.6-0.7-0.7c-0.6-0.1-1.2,0.1-1.6,0.6c-0.4,0.4,0.2,1.2-0.5,0.9s-0.6-0.4-1-0.8
	S12.2,4.5,12,4.7S11.9,5,11.4,5.2S11,5.3,11,6.1s0.2,1-0.3,1.1s-0.8,0.4-0.4,0.9s1.1,0.5,1.4,1s0.1,1.4,0.4,1.8s0.6,1.3,0.8,0.9
	c0.3-0.7,0.5-1.5,0.5-2.3c0-0.8,0.2-1.1,1.2-1.3c0.6-0.1,1.3,0.2,1.7,0.7c0.1,0.1,0.7,0.5,0.8,0.9S16.4,11,17,11.4S17.7,12,18.1,12z
	"/>
</g>
</svg>
