<svg xmlns="http://www.w3.org/2000/svg" viewBox="0 0 22 15"><defs><style>.cls-1{fill:#fff;}</style></defs><title>yt</title><g id="Layer_2" data-name="Layer 2"><g id="Layer_1-2" data-name="Layer 1"><g id="Lozenge"><path class="cls-1" d="M21.78,3.24a4.53,4.53,0,0,0-.87-2.12,3.2,3.2,0,0,0-2.2-.9C15.62,0,11,0,11,0h0S6.38,0,3.3.22a3.2,3.2,0,0,0-2.2.9A4.53,4.53,0,0,0,.22,3.24,31.28,31.28,0,0,0,0,6.69V8.31a31.28,31.28,0,0,0,.22,3.45,4.53,4.53,0,0,0,.87,2.12,3.8,3.8,0,0,0,2.43.91C5.28,14.95,11,15,11,15s4.62,0,7.7-.22a3.2,3.2,0,0,0,2.2-.9,4.53,4.53,0,0,0,.87-2.12S22,9.73,22,8V6.69A31.33,31.33,0,0,0,21.78,3.24ZM8,11V4l6.67,3.28Z"/></g></g></g></svg>